<svg id="Layer_1" data-name="Layer 1" xmlns="http://www.w3.org/2000/svg" viewBox="0 0 508.02 440.52"><defs><style>.cls-1{fill:#fff;}</style></defs><path class="cls-1" d="M286,699.27V259.69H794V699.27ZM593.17,559c-3.95-23.55-18.4-37.06-41.08-42.7l-.9-1c-10.7-29.16-8.85-31.55,13.07-50.83,18.79-16.53,35.45-35.55,52.26-54.17,4.57-5.05,6.29-12.65,10.4-21.37h-32c26-27.84,36.33-55.73,6.55-87.77l25.91-16.62-4.48-6.08-39.24,4.38c3.68-8.44,5.85-13.42,10.5-24.11-23.32,5.49-42.91,9.79-62.29,14.83-7.29,1.89-14.81,4.47-21,8.58-7.18,4.78-17.32,10.85-18.5,17.69-2.24,13,1,26.86,2,40.89l-15.91-4.12c7.13,13,11.12,25.13,19.31,32.81,3.17,3,15.84-4.12,25.58-7.05.12,15-7.13,19.45-20.09,21.29-12.12,1.71-26.2,4-35,11.34-12.73,10.6-22.81,25.14-31.62,39.46-17.82,29-23.39,30.92-56.94,20.73-8-2.44-21.34-1-26.66,4.22-9.89,9.77,5.15,41.32,19.34,42.48a422.17,422.17,0,0,0,51,1.48c11.1-.44,16.57,3.86,22.31,12.8,7.05,11,16.45,20.66,25.71,30,9,9.13,19.14,17.18,28.77,25.7l-3.68,5.47c-7.32-2.24-14.64-6.27-21.94-6.25-7.86,0-15.64,4.11-23.58,5.83-1.89.41-4.25-2.2-6.46-2.35-7.3-.48-14.64-.74-21.95-.56-5,.12-10.05,1.76-15,1.58-20.56-.76-41.1-2.08-61.66-2.83-2.71-.1-5.43,2.35-8.28,2.79-3.81.6-8.51,1.83-11.52.28-14.64-7.57-25.42-.79-37.6,7.66l19.17,32.61c-6.65,5.5-15.77,9.4-16.12,14-1.58,20.82-.69,41.82-.69,64.81h20.87q72.31-.07,144.64-.13c98.79,0,197.57.18,296.36-.12,5,0,14.3-4,14.22-5.84-1.11-23.83,8.95-48.76-6.2-71.35-7.79-11.61-14.39-24.17-23.3-34.83-4.73-5.67-14.23-12.52-19.88-11.26-13.85,3.09-30.09-2.24-39.77,1.81-22.92,9.59-44.07-12.13-64,3.93-2.46-12.59-3.57-22.49-6.41-31.86-4.76-15.68-11.68-30.75-15.61-46.6-2.06-8.3.3-17.69.82-30.25,26.57,25.1,30,25.37,44.45,7.85-4.89-5.86-10.25-11.25-14.37-17.47-5.38-8.12-11.06-8.89-19.18-4C586,465.32,579.6,477.6,584.1,497.44c3.35,14.82,9.16,29.1,12.32,43.95,1.11,5.19-2.41,11.37-3.82,17.1Z" transform="translate(-285.99 -258.74)"/><path d="M592.6,558.49c1.41-5.73,4.93-11.91,3.82-17.1-3.16-14.85-9-29.13-12.32-43.95-4.5-19.84,1.9-32.12,19.36-42.64,8.12-4.9,13.8-4.13,19.18,4,4.12,6.22,9.48,11.61,14.37,17.47-14.47,17.52-17.88,17.25-44.45-7.85-.52,12.56-2.88,21.95-.82,30.25,3.93,15.85,10.85,30.92,15.61,46.6,2.84,9.37,3.95,19.27,6.41,31.86,20-16.06,41.11,5.66,64-3.93,9.68-4.05,25.92,1.28,39.77-1.81,5.65-1.26,15.15,5.59,19.88,11.26,8.91,10.66,15.51,23.22,23.3,34.83,15.15,22.59,5.09,47.52,6.2,71.35.08,1.81-9.25,5.83-14.22,5.84-98.79.3-197.57.14-296.36.12q-72.32,0-144.64.13H290.85c0-23-.89-44,.69-64.81.35-4.56,9.47-8.46,16.12-14l-19.17-32.61c12.18-8.45,23-15.23,37.6-7.66,3,1.55,7.71.32,11.52-.28,2.85-.44,5.57-2.89,8.28-2.79,20.56.75,41.1,2.07,61.66,2.83,5,.18,10-1.46,15-1.58,7.31-.18,14.65.08,21.95.56,2.21.15,4.57,2.76,6.46,2.35,7.94-1.72,15.72-5.8,23.58-5.83,7.3,0,14.62,4,21.94,6.25l3.68-5.47c-9.63-8.52-19.75-16.57-28.77-25.7-9.26-9.38-18.66-19-25.71-30-5.74-8.94-11.21-13.24-22.31-12.8a422.17,422.17,0,0,1-51-1.48c-14.19-1.16-29.23-32.71-19.34-42.48,5.32-5.25,18.65-6.66,26.66-4.22,33.55,10.19,39.12,8.23,56.94-20.73,8.81-14.32,18.89-28.86,31.62-39.46,8.79-7.32,22.87-9.63,35-11.34,13-1.84,20.21-6.27,20.09-21.29-9.74,2.93-22.41,10-25.58,7.05-8.19-7.68-12.18-19.8-19.31-32.81l15.91,4.12c-1-14-4.22-27.93-2-40.89,1.18-6.84,11.32-12.91,18.5-17.69,6.18-4.11,13.7-6.69,21-8.58,19.38-5,39-9.34,62.29-14.83-4.65,10.69-6.82,15.67-10.5,24.11l39.24-4.38,4.48,6.08-25.91,16.62c29.78,32,19.44,59.93-6.55,87.77h32c-4.11,8.72-5.83,16.32-10.4,21.37-16.81,18.62-33.47,37.64-52.26,54.17-21.92,19.28-23.77,21.67-13.08,50.82l-17-30c-38.14,5.54-38.14,5.54-41.06-15.42l25.74-9.56-2-5.53c-3.11.82-6.18,2-9.34,2.37-2.93.32-6-.24-8.94-.41,6.91-8.39,20.15-11.65,22.09-18.22,5-17.05,14.84-17.49,29.11-16.75,6,.31,12.4-6.34,21.13-11.24h-33c.82-11.37-.46-22.24,2.86-31.46,3.39-9.43,11.3-17.24,17.37-26L574.33,364l15-19,5.28,18.42c5.49-8.95,11.78-20.76,8.22-26.7-6.74-11.25-19.14-19.14-28.71-28-1.53-10.72-3.37-23.67-5.22-36.63l-18.63,3.33c3.19,10.5,9.26,20.24,6.61,24.26-3.69,5.6-14.23,6.35-21.22,10.28-3.28,1.85-5.09,6.28-7.57,9.51q-3.3-6.51-6.59-13l22.2-8.77-8-14.45c-22,1.74-36.4,10.3-37.26,33.63l11.68-3.72c2,5.11,3.46,9,4.88,12.7l13.11-6.52q8.31,18.66,16.61,37.33c-17.74-10.52-35.25-8.14-46.38,10.54,7-3.2,10.56-5.2,14.39-6.51,4.37-1.5,12-4.45,12.88-3.19,2.88,4.29,5.23,10.46,4.43,15.38-2.91,17.93-12.42,22.64-31.77,20.22-7.19-.89-15.53,2-22.11,5.47-1.6.85,2.7,10.89,2.42,16.61-.36,7.43,0,18.17-4.49,21.5-13.15,9.82-28.55,16.64-43,24.74-18,10.1-35.88,13.95-53.9-.3-3.1-2.46-7.46-3.34-10.41-4.6,3.32,11.91,5.33,22.81,9.76,32.61,1.18,2.6,12.31,4.43,14.62,2.21,14.2-13.67,30.93-17.06,49.45-6.12l-28.91,3.93c.14,1.81.29,3.62.44,5.43,6.65,0,13.43.83,19.92-.17,15.44-2.37,23.69,2.51,31.06,17.7,8.95,18.45,22.28,35.52,36.61,50.43,11.4,11.85,27.58,15.51,45.09,10.37,6.55-1.91,14.81-.22,21.72,1.76C581.82,579.05,591.83,573.32,592.6,558.49ZM333.48,667.33c1.19-1.91,4-4.36,3.92-6.72-.26-8,.93-17.7-3.17-23.3-3.89-5.3-13.75-6.24-21-9.1-2,7.33-4.38,14.59-5.87,22-.79,3.92-.06,8.14.06,12.22.25,8.33.55,16.65.83,25l5.53-.15,5.64-14.3,20.45,14.83,4.22-3.94Zm208.59-27.26c.5-1.46,1-2.91,1.51-4.37-5.51-2-12.49-7.13-16.21-5.38-6.8,3.2-15.25,9.68-16.69,16.19-4.35,19.58,18.81,12.29,25.28,22-6.91,18.25-19.29,4.6-30.65,7.14,4.7,6.59,11.95,15.31,16.43,14.07,9-2.49,21.12-8.88,23.58-16.4,6-18.26-12.51-19.42-24.18-28.18Zm46.35,13.33c-1.27-8.14-2.57-16.47-3.88-24.8l-5.65.64v58c8.19-9.46,7.26-26.66,26.48-21.39,2.12,7.29,4.25,14.64,6.38,22l4.17-1.13v-61C605.06,637.26,611.94,660.82,588.42,653.4Zm137.79-28.9c-9.92,25.1-8,66.73,1.79,65.33,1.12-4.05,2.35-8.5,3.5-12.68l19.42,12.3c1.25-1.38,2.49-2.77,3.73-4.15l-19-24.15,17.68-29.28-8.13-6.26L733.47,649.8C730.2,638.39,728.88,633.8,726.21,624.5ZM345.91,616c-21.84-40.15-28.15-44.1-47.32-30.46C312.31,619.17,322.05,625.66,345.91,616Zm106.51,12.7-6.6.47c-1.29,20.45-4.33,40.9,4.92,61.69L455.35,676l18.48,13.29,3.42-3.38c-1.61-3.16-2.43-7.38-5-9.29-13.13-9.8-14.42-19.54-2.49-31.54,3.39-3.41,3.89-9.69,5.71-14.65L471,628.48l-14.88,16.9C454.67,638.84,453.54,633.76,452.42,628.67ZM412.7,685.9q-5.44-27.49-10.9-55l-5.09.06c-9.77,17.57-21.83,34.27-21.93,55.57C393.54,670.32,393.54,670.32,412.7,685.9Zm266-54.64-6.2-.56c-8.26,18-21.67,33.84-21.77,55.48,7.42-4,12.67-12.57,18.64-13.11,4.73-.42,10.34,9,15.56,14l3.31-1.26ZM619.36,585c10.76,27,24.48,35,46.3,27.22C647.19,574.25,639.26,569.59,619.36,585Zm-115,28.42c-19.77-39.26-28.17-44.1-47.29-28.28C468.38,611.58,478.9,618.1,504.4,613.42Zm197.07-28.83c11.58,27.31,22.4,33.93,45.84,28.71C733.48,582.14,725.55,566.46,701.47,584.59ZM423.69,612.76c-20.25-38.69-26.1-42.18-46.34-28.56C386,611,398.94,619.29,423.69,612.76Zm114.68-28.65c6.54,25.68,24,36.38,45.66,28.06C565.66,577.06,562.61,575.19,538.37,584.11Z" transform="translate(-285.99 -258.74)"/><path class="cls-1" d="M528.08,319.46c2.48-3.26,4.29-7.69,7.57-9.54,7-3.93,17.53-4.68,21.22-10.28,2.65-4-3.42-13.76-6.61-24.26l18.63-3.33c1.85,13,3.69,25.91,5.22,36.63,9.57,8.84,22,16.73,28.71,28,3.56,5.94-2.73,17.75-8.22,26.7l-5.28-18.42-15,19-16.26-10.87c-6.07,8.72-14,16.53-17.37,26-3.32,9.22-2,20.09-2.86,31.46h33c-8.73,4.9-15.11,11.55-21.13,11.24-14.27-.74-24.09-.3-29.11,16.75-1.94,6.57-15.18,9.83-22.09,18.22,3,.17,6,.73,8.94.41,3.16-.36,6.23-1.55,9.34-2.37l2,5.53-25.74,9.56c2.92,21,2.92,21,41.06,15.42l17,30,.91,1L593.17,559l-.57-.51c-.77,14.83-10.78,20.56-26.06,16.18-6.91-2-15.17-3.67-21.72-1.76-17.51,5.14-33.69,1.48-45.09-10.37-14.33-14.91-27.66-32-36.61-50.43-7.37-15.19-15.62-20.07-31.06-17.7-6.49,1-13.27.17-19.92.17-.15-1.81-.3-3.62-.44-5.43l28.91-3.93c-18.52-10.94-35.25-7.55-49.45,6.12-2.31,2.22-13.44.39-14.62-2.21-4.43-9.8-6.44-20.7-9.76-32.61,3,1.26,7.31,2.14,10.41,4.6,18,14.25,35.86,10.4,53.9.3,14.45-8.1,29.85-14.92,43-24.74,4.46-3.33,4.13-14.07,4.49-21.5.28-5.72-4-15.76-2.42-16.61,6.58-3.47,14.92-6.36,22.11-5.47,19.35,2.42,28.86-2.29,31.77-20.22.8-4.92-1.55-11.09-4.43-15.38-.84-1.26-8.51,1.69-12.88,3.19-3.83,1.31-7.42,3.31-14.39,6.51,11.13-18.68,28.64-21.06,46.38-10.54q-8.31-18.68-16.61-37.33Z" transform="translate(-285.99 -258.74)"/><path d="M593.17,559l-41.08-42.7C574.77,521.94,589.22,535.45,593.17,559Z" transform="translate(-285.99 -258.74)"/><path class="cls-1" d="M333.48,667.33l10.62,16.54-4.22,3.94L319.43,673l-5.64,14.3-5.53.15c-.28-8.33-.58-16.65-.83-25-.12-4.08-.85-8.3-.06-12.22,1.49-7.43,3.86-14.69,5.87-22,7.24,2.86,17.1,3.8,21,9.1,4.1,5.6,2.91,15.34,3.17,23.3C337.48,663,334.67,665.42,333.48,667.33Z" transform="translate(-285.99 -258.74)"/><path class="cls-1" d="M542.07,640.07l-20.93,5c11.67,8.76,30.18,9.92,24.18,28.18-2.46,7.52-14.61,13.91-23.58,16.4-4.48,1.24-11.73-7.48-16.43-14.07,11.36-2.54,23.74,11.11,30.65-7.14-6.47-9.69-29.63-2.4-25.28-22,1.44-6.51,9.89-13,16.69-16.19,3.72-1.75,10.7,3.36,16.21,5.38C543.07,637.16,542.57,638.61,542.07,640.07Z" transform="translate(-285.99 -258.74)"/><path class="cls-1" d="M588.42,653.4c23.52,7.42,16.64-16.14,27.5-27.74v61l-4.17,1.13c-2.13-7.35-4.26-14.7-6.38-22-19.22-5.27-18.29,11.93-26.48,21.39v-58l5.65-.64C585.85,636.93,587.15,645.26,588.42,653.4Z" transform="translate(-285.99 -258.74)"/><path class="cls-1" d="M726.21,624.5c2.67,9.3,4,13.89,7.26,25.3l11.68-24.19,8.13,6.26L735.6,661.15l19,24.15c-1.24,1.38-2.48,2.77-3.73,4.15l-19.42-12.3c-1.15,4.18-2.38,8.63-3.5,12.68C718.18,691.23,716.29,649.6,726.21,624.5Z" transform="translate(-285.99 -258.74)"/><path class="cls-1" d="M345.91,616c-23.86,9.69-33.6,3.2-47.32-30.46C317.76,571.87,324.07,575.82,345.91,616Z" transform="translate(-285.99 -258.74)"/><path class="cls-1" d="M452.42,628.67c1.12,5.09,2.25,10.17,3.69,16.71L471,628.48l4.49,1.93c-1.82,5-2.32,11.24-5.71,14.65-11.93,12-10.64,21.74,2.49,31.54,2.56,1.91,3.38,6.13,5,9.29l-3.42,3.38L455.35,676l-4.61,14.85c-9.25-20.79-6.21-41.24-4.92-61.69Z" transform="translate(-285.99 -258.74)"/><path class="cls-1" d="M412.7,685.9c-19.16-15.58-19.16-15.58-37.92.63.1-21.3,12.16-38,21.93-55.57l5.09-.06Q407.26,658.4,412.7,685.9Z" transform="translate(-285.99 -258.74)"/><path class="cls-1" d="M678.7,631.26l9.54,54.55-3.31,1.26c-5.22-5-10.83-14.42-15.56-14-6,.54-11.22,9.07-18.64,13.11.1-21.64,13.51-37.49,21.77-55.48Z" transform="translate(-285.99 -258.74)"/><path class="cls-1" d="M619.36,585c19.9-15.41,27.83-10.75,46.3,27.22C643.84,620,630.12,612,619.36,585Z" transform="translate(-285.99 -258.74)"/><path class="cls-1" d="M504.4,613.42c-25.5,4.68-36-1.84-47.29-28.28C476.23,569.32,484.63,574.16,504.4,613.42Z" transform="translate(-285.99 -258.74)"/><path class="cls-1" d="M701.47,584.59c24.08-18.13,32-2.45,45.84,28.71C723.87,618.52,713.05,611.9,701.47,584.59Z" transform="translate(-285.99 -258.74)"/><path class="cls-1" d="M423.69,612.76c-24.75,6.53-37.74-1.8-46.34-28.56C397.59,570.58,403.44,574.07,423.69,612.76Z" transform="translate(-285.99 -258.74)"/><path class="cls-1" d="M538.37,584.11c24.24-8.92,27.29-7.05,45.66,28.06C562.33,620.49,544.91,609.79,538.37,584.11Z" transform="translate(-285.99 -258.74)"/><path class="cls-1" d="M528.11,319.33,515,325.85c-1.42-3.71-2.92-7.59-4.88-12.7l-11.68,3.72c.86-23.33,15.3-31.89,37.26-33.63l8,14.45-22.2,8.77q3.28,6.46,6.59,13S528.11,319.33,528.11,319.33Z" transform="translate(-285.99 -258.74)"/></svg>