<svg id="Layer_2" data-name="Layer 2" xmlns="http://www.w3.org/2000/svg" viewBox="0 0 548.64 349.73">
  <defs>
    <style>.cls-1{fill:#fff;}</style>
  </defs>
  <path class="cls-1" d="M489.31,692.53H254.18V343.61H802.82V692.53H618.63c-1.3-9.54-1.54-19.37-4.11-28.55-5.09-18.16-12.56-35.7-16.86-54-2.18-9.28.39-19.68,1-33.69,29.35,28,33.25,28.31,49.32,8.78-5.44-6.54-11.38-12.54-15.94-19.44-6-9-12.25-10-21.28-4.5-19.37,11.7-26.44,25.39-21.58,47.47,3.91,17.79,10.13,35.08,13.73,52.92,1.18,5.84-2.65,12.69-4.19,19.08l.58.59c-3-26.66-22.42-38.93-43.58-49.66l-2-2c-13.56-31.22-11-36,13.91-57.95,20.86-18.36,39.27-39.61,57.87-60.37,5-5.55,6.7-14,11.08-23.75H601.21c28.68-30.53,40-61,6.1-98.59l30.25-17.26-5.38-7-42.79,4.95,10.29-26.73c-25.27,6-47,10.78-68.49,16.4-8.08,2.1-16.42,5-23.27,9.55-8,5.32-19.22,12.05-20.55,19.65-2.52,14.43,1,29.91,2.08,45.55l-17.58-4.61c7.88,14.5,12.24,28,21.31,36.51,3.6,3.36,17.64-4.45,29.56-8-1.62,15.92-8.2,25.4-23,23.15-21-3.17-35.58,6.55-47.79,20.71a271.34,271.34,0,0,0-28.32,39.65c-16.61,28.26-27.86,32.07-59.14,21.18-8.93-3.11-21.81-3.83-29.09.6-4.57,2.77-4.1,17.59-2.27,26.24,2.26,10.73,4,24.12,20.34,24.4,20.18.34,40.42.37,60.49,2.18,6.51.59,16.37,5,18.14,10,6.88,19.49,19,33.39,35.76,44.81C476.09,676.44,482.22,685.19,489.31,692.53Z" transform="translate(-254.18 -342.8)"/>
  <path d="M489.31,692.53c-7.09-7.34-13.22-16.09-21.48-21.71C451.05,659.4,439,645.5,432.07,626c-1.77-5-11.63-9.41-18.14-10-20.07-1.81-40.31-1.84-60.49-2.18-16.35-.28-18.08-13.67-20.34-24.4-1.83-8.65-2.3-23.47,2.27-26.24,7.28-4.43,20.16-3.71,29.09-.6,31.28,10.89,42.53,7.08,59.14-21.18a271.34,271.34,0,0,1,28.32-39.65c12.21-14.16,26.8-23.88,47.79-20.71,14.83,2.25,21.41-7.23,23-23.15-11.92,3.5-26,11.31-29.56,8-9.07-8.49-13.43-22-21.31-36.51L489.45,434c-1.06-15.64-4.6-31.12-2.08-45.55,1.33-7.6,12.57-14.33,20.55-19.65,6.85-4.58,15.19-7.45,23.27-9.55,21.5-5.62,43.22-10.42,68.49-16.4l-10.29,26.73,42.79-4.95,5.38,7-30.25,17.26c33.9,37.6,22.58,68.06-6.1,98.59h35.36c-4.38,9.73-6.11,18.2-11.08,23.75-18.6,20.76-37,42-57.87,60.37-24.92,21.93-27.47,26.73-13.93,57.93l-20.28-34.74c-41.2,7.61-43.29,6.81-44.63-16.39l27.69-11.73-2.34-5.19-19.29,3.18-2.19-4.48c5.47-3.61,11-7.14,16.41-10.86,4-2.78,10.72-5.28,11.39-8.82,2.94-15.62,12.08-17.71,25.79-16,10.85,1.37,21.69-.44,23.74-12.57H536.3c7-23.08-1.69-50.48,27-62.13l15,10.33,16.86-21.62c2.34,9.08,3.86,15,5.39,20.92,6.12-9.27,14.19-24.24,10.8-27.58-11.59-11.43-15.38-33.77-33-30.83-2.1-15.57-4-29.48-5.85-43.4l-21,3.53c3.61,11.64,10.46,22.49,7.54,27-4,6.25-15.8,7.13-23.56,11.53-3.65,2.08-5.68,7-8.44,10.6-2.44-4.85-4.88-9.65-7.32-14.46l24.65-9.77c-2.8-5.08-6.39-11.59-8.87-16.11-24.39,1.94-40.42,11.48-41.37,37.49l13-4.16c2.18,5.7,3.84,10,5.43,14.16l14.55-7.26q9.24,20.79,18.47,41.59c-19.79-11.75-38.94-9.17-51.67,11.71,7.81-3.53,11.81-5.69,16-7.16,4.86-1.69,13.35-5.08,14.3-3.68,3.22,4.74,5.89,11.61,5,17.07-3.16,20-13.79,25.41-35.15,22.71-8-1-17.25,2.1-24.6,5.9-1.78.93,3,12.15,2.48,18.45-.71,8.82-.63,21.32-6,25.43-14.52,11-31.74,18.51-48,27.22-19.53,10.47-38.91,14.35-58.17-1.07-3.48-2.79-8.31-3.9-12.13-5.6,4,14,6.76,26.52,11.74,38.1,1,2.43,12.79,3.9,15.48,1.39,16.93-15.85,32.92-19.32,56-7.46l-33,4.73.38,5.19c9.18,0,18.78-1.68,27.44.46,9,2.22,22.84,6.49,24.59,12.68,8.76,31,28.53,53.48,50.84,74.68Z" transform="translate(-254.18 -342.8)"/>
  <path class="cls-1" d="M527,410.33c2.77-3.63,4.8-8.55,8.45-10.63,7.76-4.4,19.51-5.28,23.56-11.53,2.92-4.53-3.93-15.38-7.54-27l21-3.53c1.88,13.92,3.75,27.83,5.85,43.4,17.59-2.94,21.38,19.4,33,30.83,3.39,3.34-4.68,18.31-10.8,27.58-1.53-5.92-3-11.84-5.39-20.92l-16.86,21.62-15-10.33c-28.64,11.65-19.91,39.05-27,62.13H570c-2.05,12.13-12.89,13.94-23.74,12.57-13.71-1.73-22.85.36-25.79,16-.67,3.54-7.35,6-11.39,8.82-5.41,3.72-10.94,7.25-16.41,10.86l2.19,4.48,19.29-3.18,2.34,5.19-27.69,11.73c1.34,23.2,3.43,24,44.63,16.39l20.28,34.74,2,2,43.58,49.66-.58-.59.33,11.95h-98c-22.31-21.2-42.08-43.64-50.84-74.68-1.75-6.19-15.6-10.46-24.59-12.68-8.66-2.14-18.26-.46-27.44-.46l-.38-5.19,33-4.73c-23.08-11.86-39.07-8.39-56,7.46-2.69,2.51-14.44,1-15.48-1.39-5-11.58-7.7-24.13-11.74-38.1,3.82,1.7,8.65,2.81,12.13,5.6,19.26,15.42,38.64,11.54,58.17,1.07,16.24-8.71,33.46-16.2,48-27.22,5.42-4.11,5.34-16.61,6-25.43.51-6.3-4.26-17.52-2.48-18.45,7.35-3.8,16.6-6.92,24.6-5.9,21.36,2.7,32-2.68,35.15-22.71.86-5.46-1.81-12.33-5-17.07-1-1.4-9.44,2-14.3,3.68-4.24,1.47-8.24,3.63-16,7.16,12.73-20.88,31.88-23.46,51.67-11.71q-9.24-20.8-18.47-41.59Z" transform="translate(-254.18 -342.8)"/>
  <path d="M599,692.53l-.33-11.95c1.54-6.39,5.37-13.24,4.19-19.08-3.6-17.84-9.82-35.13-13.73-52.92-4.86-22.08,2.21-35.77,21.58-47.47,9-5.46,15.32-4.53,21.28,4.5,4.56,6.9,10.5,12.9,15.94,19.44-16.07,19.53-20,19.21-49.32-8.78-.6,14-3.17,24.41-1,33.69,4.3,18.32,11.77,35.86,16.86,54,2.57,9.18,2.81,19,4.11,28.55Z" transform="translate(-254.18 -342.8)"/>
  <path d="M599.29,681.17l-43.58-49.66C576.87,642.24,596.27,654.51,599.29,681.17Z" transform="translate(-254.18 -342.8)"/>
  <path class="cls-1" d="M527.05,410.19l-14.55,7.26c-1.59-4.14-3.25-8.46-5.43-14.16l-13,4.16c.95-26,17-35.55,41.37-37.49,2.48,4.52,6.07,11,8.87,16.11l-24.65,9.77c2.44,4.81,4.88,9.61,7.32,14.46Z" transform="translate(-254.18 -342.8)"/>
</svg>